<?xml version="1.0" encoding="UTF-8" standalone="no"?>
<!-- Created with Inkscape (http://www.inkscape.org/) -->

<svg
   xmlns:dc="http://purl.org/dc/elements/1.1/"
   xmlns:cc="http://creativecommons.org/ns#"
   xmlns:rdf="http://www.w3.org/1999/02/22-rdf-syntax-ns#"
   xmlns:svg="http://www.w3.org/2000/svg"
   xmlns="http://www.w3.org/2000/svg"
   xmlns:sodipodi="http://sodipodi.sourceforge.net/DTD/sodipodi-0.dtd"
   xmlns:inkscape="http://www.inkscape.org/namespaces/inkscape"
   version="1.0"
   width="1200"
   height="1200"
   id="svg1901"
   sodipodi:docname="rose_in.svg"
   inkscape:version="0.92.2 (5c3e80d, 2017-08-06)">
  <metadata
     id="metadata3955">
    <rdf:RDF>
      <cc:Work
         rdf:about="">
        <dc:format>image/svg+xml</dc:format>
        <dc:type
           rdf:resource="http://purl.org/dc/dcmitype/StillImage" />
        <dc:title></dc:title>
      </cc:Work>
    </rdf:RDF>
  </metadata>
  <sodipodi:namedview
     pagecolor="#ffffff"
     bordercolor="#666666"
     borderopacity="1"
     objecttolerance="10"
     gridtolerance="10"
     guidetolerance="10"
     inkscape:pageopacity="0"
     inkscape:pageshadow="2"
     inkscape:window-width="1680"
     inkscape:window-height="987"
     id="namedview3953"
     showgrid="true"
     inkscape:zoom="0.67755804"
     inkscape:cx="634.96942"
     inkscape:cy="592.38388"
     inkscape:window-x="-8"
     inkscape:window-y="-8"
     inkscape:window-maximized="1"
     inkscape:current-layer="svg1901">
    <inkscape:grid
       type="xygrid"
       id="grid3957"
       dotted="false"
       empspacing="100" />
  </sodipodi:namedview>
  <defs
     id="defs1903" />
  <path
     d="m 600.15322,847.74146 a 248.02391,248.02391 0 1 1 0,-496.04782 248.02391,248.02391 0 0 1 0,496.04782 z"
     id="path8242"
     style="font-style:normal;font-variant:normal;font-weight:normal;font-stretch:semi-condensed;font-size:18px;line-height:125%;font-family:'DejaVu Sans';-inkscape-font-specification:'DejaVu Sans Semi-Condensed';text-align:center;writing-mode:lr-tb;text-anchor:middle;fill:none;stroke:none"
     inkscape:connector-curvature="0" />
  <path
     d="m 522.60074,294.35649 -6.17067,-24.29707 m -45.67718,42.40315 -10.29606,-22.85641 m -37.62001,49.6907 -14.10861,-20.72128 m -28.41979,55.46843 -17.49247,-17.95653 m -18.35604,59.56078 -20.34484,-14.6462 m -7.73455,61.84341 -22.57904,-10.89085 m 3.12195,62.24697 -24.12719,-6.80458 m 13.88359,60.75917 -24.94225,-2.51156 m 24.22339,57.42525 -24.99945,1.85776 m 33.82717,52.34649 -24.29705,6.17064 m 42.40313,45.67721 -22.8564,10.29603 m 49.6907,37.62004 -20.72127,14.10858 m 55.46842,28.41982 -17.95653,17.49244 m 59.56079,18.35607 -14.64621,20.34481 m 61.84342,7.73458 -10.89086,22.57901 m 62.24698,-3.12192 -6.80459,24.12716 m 60.75918,-13.88357 -2.51157,24.94223 m 57.42526,-24.22337 1.85775,24.99943 m 52.3465,-33.82716 6.17063,24.29705 m 45.67722,-42.40313 10.29602,22.8564 m 37.62005,-49.6907 14.10857,20.72128 m 28.41983,-55.46845 17.49243,17.95656 m 18.35608,-59.56081 20.3448,14.64623 m 7.73459,-61.84344 22.57901,10.89088 m -3.12192,-62.247 24.12716,6.80461 m -13.88357,-60.7592 24.94223,2.51159 m -24.22337,-57.42528 24.99943,-1.85773 m -33.82716,-52.34652 24.29705,-6.17061 m -42.40314,-45.67724 22.85641,-10.296 m -49.6907,-37.62007 20.72128,-14.10855 m -55.46845,-28.41985 17.95656,-17.49242 m -59.56081,-18.35609 14.64623,-20.34479 m -61.84345,-7.7346 10.89089,-22.579 m -62.24701,3.12191 6.80462,-24.12715 m -60.75922,13.88356 2.51161,-24.94222 m -57.42529,24.22336 -1.85772,-24.99942 m -25.43683,28.22998 -2.85216,-17.51297 m -50.37594,31.03119 -5.84992,-16.75164 m -44.22211,39.30745 -8.66995,-15.48132 m -36.7246,46.38937 -11.22653,-13.7406 m -28.11125,52.06177 -13.442,-11.58239 m -18.64374,56.15231 -15.24904,-9.07226 m -8.60976,58.53669 -16.59276,-6.28646 m 1.68582,59.14246 -17.4323,-3.30965 m 11.9302,57.95121 -17.74219,-0.2323 m 21.81208,54.99914 -17.51298,2.85215 m 23.11009,24.05702 -17.19776,4.36764 m 25.11887,21.9513 -16.75165,5.84989 m 39.30746,44.22213 -15.48134,8.66993 m 46.38939,36.72461 -13.74062,11.22653 m 52.06179,28.11124 -11.58241,13.442 m 56.15233,18.64374 -9.07228,15.24905 m 58.53671,8.60975 -6.28649,16.59277 m 59.14247,-1.68584 -3.30967,17.43232 m 57.95122,-11.93022 -0.2323,17.74221 m 54.99914,-21.81209 2.85214,17.51299 m 50.37595,-31.0312 5.8499,16.75165 m 44.22212,-39.30746 8.66992,15.48134 m 36.72462,-46.38938 11.22651,13.74062 m 28.11127,-52.06178 13.44198,11.5824 m 18.64376,-56.15232 15.24903,9.07228 m 8.60977,-58.5367 16.59275,6.28648 m -1.68581,-59.14246 17.43229,3.30967 m -11.93018,-57.95122 17.74217,0.2323 m -21.81205,-54.99915 17.51297,-2.85213 m -31.03118,-50.37596 16.75164,-5.84989 m -39.30745,-44.22213 15.48132,-8.66991 m -46.38936,-36.72463 13.74061,-11.2265 m -52.06177,-28.11128 11.5824,-13.44197 m -56.1523,-18.64378 9.07225,-15.24901 m -58.53668,-8.6098 6.28646,-16.59272 m -59.14245,1.68579 3.30966,-17.43227 m -57.95121,11.93015 0.2323,-17.74215 m -33.18437,19.03681 -0.95226,-10.36324 m -4.51876,10.91414 -1.13297,-10.34504 m -4.3276,10.99135 -1.31335,-10.3237 m -4.1351,11.0652 -1.49333,-10.29921 m -9.36061,12.06688 -1.85184,-10.2408 m -3.55035,11.26644 -2.03028,-10.20694 m -3.35318,11.3267 -2.20811,-10.16995 m -3.15497,11.3835 -2.38528,-10.12987 m -8.27329,12.8368 -2.73735,-10.04044 m -2.55489,11.533 -2.91216,-9.99114 m -2.35322,11.57584 -3.08609,-9.93879 m -2.15082,11.61514 -3.25908,-9.88342 m -7.12301,13.50901 -3.60202,-9.76366 m -1.54,11.71179 -3.77186,-9.69931 m -1.33536,11.73689 -3.94057,-9.632 m -1.13031,11.7584 -4.10808,-9.56177 m -5.91852,14.07843 -4.43927,-9.41258 m -0.51338,11.80145 -4.60286,-9.33367 m -0.30735,11.80861 -4.76506,-9.2519 m -0.1012,11.81216 -4.9258,-9.16733 m -4.66899,14.54068 -5.24273,-8.98985 m 0.51713,11.80128 -5.39883,-8.89697 m 0.72301,11.79046 -5.55328,-8.8014 m 0.92869,11.77604 -5.70605,-8.70315 m -3.38392,14.89229 -6.00629,-8.4987 m 1.5437,11.71129 -6.1537,-8.39258 m 1.74786,11.68258 -6.29924,-8.2839 m 1.95152,11.65029 -6.44287,-8.17271 m -2.0731,15.13054 -6.72414,-7.94288 m 2.55853,11.53218 -6.86175,-7.82431 m 2.75942,11.48579 -6.99726,-7.70337 m 2.95948,11.43588 -7.13065,-7.58009 m -0.7465,15.25365 -7.39082,-7.3266 m 3.55389,11.26531 -7.51758,-7.1965 m 3.74999,11.20159 -7.64205,-7.06421 m 3.94494,11.13442 -7.76417,-6.92976 m 0.58579,15.26066 -8.00126,-6.65457 m 4.52221,10.91271 -8.11619,-6.51393 m 4.71199,10.83214 -8.22864,-6.37128 m 4.90035,10.74823 -8.33859,-6.2267 m 1.91361,15.15154 -8.5508,-5.93189 m 5.45611,10.47704 -8.65303,-5.78176 m 5.63815,10.38024 -8.75263,-5.62986 m 5.81847,10.28023 -8.84955,-5.47625 m 3.22687,14.9271 -9.03526,-5.16408 m 6.34849,9.96165 -9.12402,-5.0056 m 6.52138,9.84935 -9.20999,-4.8456 m 6.69231,9.734 -9.29316,-4.68413 m 4.51558,14.58907 -9.45096,-4.35696 m 7.19255,9.37044 -9.52557,-4.19134 m 7.355,9.24349 -9.59727,-4.02446 m 7.51522,9.11369 -9.66605,-3.85635 m 5.76991,14.13999 -9.79472,-3.51667 m 7.98186,8.70791 -9.85462,-3.34519 m 8.13263,8.5673 -9.91149,-3.17269 m 8.28092,8.42402 -9.96537,-2.99924 m 6.98034,13.58331 -10.06394,-2.64963 m 8.71042,7.97912 -10.10866,-2.47358 m 8.84836,7.82588 -10.15029,-2.29677 m 8.98362,7.67024 -10.18886,-2.11929 m 8.13764,12.92324 -10.25657,-1.7624 m 9.3727,7.18958 -10.28578,-1.58313 m 9.49676,7.02492 -10.31184,-1.40338 m 9.61793,6.85808 -10.33479,-1.22321 m 9.23301,12.16482 -10.37114,-0.86178 m 9.96364,6.34534 -10.38461,-0.68064 m 10.07288,6.17048 -10.39491,-0.49929 m 10.17905,5.99372 -10.40207,-0.31781 m 10.25811,11.31381 -10.4068,0.0454 m 10.47877,5.45281 -10.40442,0.22703 m 10.57235,5.26909 -10.39888,0.40859 m 10.66271,5.08374 -10.39018,0.59 m 11.20513,10.3767 -10.36324,0.95226 m 10.91413,4.51877 -10.34503,1.13297 m 10.99134,4.32759 -10.32369,1.31337 m 11.06521,4.13507 -10.29922,1.49333 m 12.06688,9.36062 -10.2408,1.85184 m 11.26643,3.55036 -10.20693,2.03028 m 11.3267,3.35316 -10.16995,2.20814 m 11.3835,3.15494 -10.12987,2.38528 m 12.8368,8.2733 -10.04044,2.73734 m 11.53299,2.55491 -9.99113,2.91216 m 11.57584,2.35321 -9.93879,3.08611 m 11.61515,2.15079 -9.88343,3.25908 m 13.50901,7.12302 -9.76366,3.60201 m 11.71178,1.54002 -9.6993,3.77186 m 11.73689,1.33535 -9.632,3.94059 m 11.75841,1.13028 -9.56178,4.10808 m 14.07842,5.91853 -9.41257,4.43925 m 11.80144,0.51341 -9.33366,4.60286 m 11.80861,0.30734 -9.2519,4.76508 m 11.81217,0.10116 -9.16734,4.92581 m 14.54068,4.66899 -8.98985,5.24272 m 11.80127,-0.5171 -8.89697,5.39882 m 11.79047,-0.72301 -8.80139,5.5533 m 11.77604,-0.92872 -8.70316,5.70605 m 14.89229,3.38392 -8.49871,6.00628 m 11.71129,-1.54367 -8.39257,6.15369 m 11.68258,-1.74786 -8.2839,6.29924 m 11.65029,-1.95153 -8.17273,6.44287 m 15.13055,2.0731 -7.94288,6.72413 m 11.53218,-2.5585 -7.8243,6.86174 m 11.48579,-2.75942 -7.70336,6.99726 m 11.43586,-2.95949 -7.58009,7.13065 m 15.25366,0.74649 -7.32662,7.39082 m 11.26532,-3.55386 -7.19649,7.51756 m 11.20158,-3.74998 -7.06419,7.64203 m 11.13441,-3.94493 -6.92977,7.76417 m 15.26067,-0.58579 -6.65458,8.00125 m 10.91271,-4.52218 -6.51392,8.11617 m 10.83214,-4.71198 -6.37127,8.22863 m 10.74822,-4.90035 -6.22671,8.33859 m 15.15155,-1.91361 -5.93191,8.55079 m 10.47705,-5.45608 -5.78176,8.65301 m 10.38024,-5.63814 -5.62984,8.75262 m 10.28022,-5.81847 -5.47627,8.84955 m 14.92711,-3.22687 -5.16408,9.03525 m 9.96166,-6.34846 -5.0056,9.124 m 9.84935,-6.52138 -4.84559,9.20999 m 9.73399,-6.69232 -4.68414,9.29317 m 14.58907,-4.51558 -4.35696,9.45095 m 9.37045,-7.19252 -4.19134,9.52555 m 9.24349,-7.35499 -4.02445,9.59726 m 9.11368,-7.51522 -3.85637,9.66605 m 14.14,-5.76991 -3.51667,9.79471 m 8.70792,-7.98183 -3.34519,9.8546 m 8.56729,-8.13263 -3.17267,9.91149 m 8.42399,-8.28092 -2.99924,9.96537 m 13.58331,-6.98034 -2.64962,10.06393 m 7.97913,-8.71039 -2.47358,10.10864 m 7.82588,-8.84836 -2.29676,10.15029 m 7.67022,-8.98362 -2.11929,10.18886 m 12.92324,-8.13764 -1.76241,10.25656 m 7.18961,-9.37267 -1.58314,10.28576 m 7.02491,-9.49675 -1.40336,10.31182 m 6.85806,-9.61792 -1.22321,10.33479 m 12.16482,-9.23301 -0.86178,10.37113 m 6.34536,-9.96362 -0.68065,10.3846 m 6.17048,-10.07288 -0.49928,10.39491 m 5.9937,-10.17906 -0.31781,10.40208 m 11.31381,-10.25811 0.0454,10.40679 m 5.45283,-10.47875 0.22702,10.40441 m 5.26909,-10.57234 0.4086,10.39886 m 5.08372,-10.6627 0.59,10.39018 m 10.3767,-11.20513 0.95225,10.36323 m 4.5188,-10.91412 1.13296,10.34503 m 4.3276,-10.99134 1.31336,10.32368 m 4.13506,-11.0652 1.49332,10.29922 m 9.36063,-12.06688 1.85184,10.24079 m 3.55037,-11.26641 2.03028,10.20692 m 3.35317,-11.3267 2.20813,10.16994 m 3.15493,-11.38349 2.38527,10.12987 m 8.27331,-12.8368 2.73734,10.04043 m 2.55493,-11.53298 2.91215,9.99113 m 2.35322,-11.57584 3.08609,9.93878 m 2.15079,-11.61514 3.25908,9.88343 m 7.12302,-13.50901 3.602,9.76365 m 1.54005,-11.71177 3.77185,9.6993 m 1.33536,-11.7369 3.94058,9.632 m 1.13027,-11.7584 4.10807,9.56178 m 5.91854,-14.07842 4.43925,9.41256 m 0.51343,-11.80142 4.60285,9.33365 m 0.30734,-11.80862 4.76506,9.2519 m 0.10117,-11.81216 4.92581,9.16734 m 4.669,-14.54068 5.24271,8.98984 m -0.51708,-11.80126 5.39882,8.89696 m -0.72304,-11.79047 5.5533,8.80139 m -0.92871,-11.77603 5.70604,8.70316 m 3.38393,-14.89229 6.00628,8.4987 m -1.54365,-11.71129 6.15369,8.39258 m -1.7479,-11.68259 6.29926,8.28389 m -1.95153,-11.65027 6.44287,8.17273 m 2.0731,-15.13056 6.72413,7.94289 m -2.55848,-11.53219 6.86174,7.82431 m -2.75945,-11.48579 6.99727,7.70335 m -2.95949,-11.43586 7.13065,7.5801 m 0.7465,-15.25366 7.39081,7.32662 m -3.55384,-11.26533 7.51756,7.1965 m -3.75001,-11.20157 7.64204,7.06417 m -3.94493,-11.1344 7.76417,6.92977 m -0.58578,-15.26067 8.00124,6.65458 m -4.52216,-10.91272 8.11617,6.51392 m -4.71201,-10.83211 8.22864,6.37124 m -4.90035,-10.74821 8.33859,6.22671 m -1.91361,-15.15155 8.55079,5.93191 m -5.45606,-10.47706 8.65301,5.78175 m -5.63817,-10.3802 8.75263,5.62981 m -5.81847,-10.28021 8.84955,5.47626 m -3.22687,-14.9271 9.03525,5.16408 m -6.34844,-9.96167 9.12399,5.0056 m -6.5214,-9.84932 9.20999,4.84556 m -6.69231,-9.73398 9.29317,4.68414 m -4.51558,-14.58907 9.45095,4.35696 m -7.1925,-9.37046 9.52555,4.19134 m -7.35502,-9.24346 9.59726,4.02442 m -7.51521,-9.11367 9.66605,3.85637 m -5.76991,-14.14 9.79471,3.51667 m -7.98182,-8.70793 9.8546,3.34519 m -8.13265,-8.56726 9.91149,3.17265 m -8.28091,-8.42399 9.96537,2.99924 m -6.98034,-13.58331 10.06393,2.64962 m -8.71039,-7.97914 10.10866,2.47358 m -8.84839,-7.82585 10.15028,2.29673 m -8.9836,-7.67021 10.18886,2.11929 m -8.13764,-12.92324 10.25656,1.76241 m -9.37267,-7.18962 10.28577,1.58314 m -9.49677,-7.02488 10.31182,1.40333 m -9.61792,-6.85805 10.33479,1.22321 m -9.233,-12.16482 10.37113,0.86178 m -9.96362,-6.34537 10.38462,0.68065 m -10.0729,-6.17045 10.3949,0.49926 m -10.17905,-5.9937 10.40208,0.31781 m -10.25811,-11.31381 10.40678,-0.0454 m -10.47874,-5.45284 10.40442,-0.22702 m -10.57235,-5.26906 10.39885,-0.40862 m -10.66269,-5.08372 10.39018,-0.59 m -11.20513,-10.3767 10.36323,-0.95225 m -10.91413,-4.51881 10.34506,-1.13296 m -10.99136,-4.32757 10.32367,-1.31337 m -11.06519,-4.13507 10.29922,-1.49332 m -12.06688,-9.36063 10.24079,-1.85184 m -11.26642,-3.55038 10.20693,-2.03028 m -11.32669,-3.35314 10.16991,-2.20814 m -11.38348,-3.15494 10.12988,-2.38527 m -12.8368,-8.27331 10.04043,-2.73734 m -11.53299,-2.55494 9.99114,-2.91215 m -11.57583,-2.35319 9.93876,-3.0861 m -11.61513,-2.1508 9.88343,-3.25908 m -13.50901,-7.12302 9.76365,-3.602 m -11.71178,-1.54006 9.69931,-3.77185 m -11.73688,-1.33533 9.63197,-3.94059 m -11.75839,-1.13028 9.56178,-4.10807 m -14.07843,-5.91854 9.41257,-4.43925 m -11.80143,-0.51344 9.33365,-4.60285 m -11.80859,-0.30732 9.25187,-4.76506 m -11.81215,-0.10118 9.16734,-4.92581 m -14.54069,-4.669 8.98985,-5.24271 m -11.80128,0.51707 8.89698,-5.39882 m -11.79045,0.72304 8.80137,-5.55328 m -11.77603,0.9287 8.70316,-5.70604 m -14.89229,-3.38393 8.4987,-6.00628 m -11.7113,1.54366 8.39258,-6.15371 m -11.68256,1.74789 8.28387,-6.29923 m -11.65027,1.95152 8.17272,-6.44287 m -15.13055,-2.07311 7.94289,-6.72412 m -11.53221,2.55849 7.82433,-6.86176 m -11.48578,2.75945 7.70334,-6.99725 m -11.43586,2.95948 7.5801,-7.13065 m -15.25366,-0.7465 7.32661,-7.39081 m -11.26533,3.55385 7.19651,-7.51758 m -11.20158,3.75001 7.06418,-7.64202 m -11.13441,3.94492 6.92978,-7.76417 m -15.26067,0.58578 6.65458,-8.00123 m -10.91273,4.52216 6.51392,-8.11619 m -10.83211,4.71202 6.37125,-8.22863 m -10.74821,4.90034 6.22671,-8.33859 m -15.15155,1.91361 5.93191,-8.55078 m -10.47707,5.45606 5.78176,-8.65302 m -10.38022,5.63817 5.62983,-8.75261 m -10.28021,5.81845 5.47626,-8.84955 m -14.92711,3.22688 5.16409,-9.03525 m -9.96168,6.34844 5.00561,-9.124 m -9.84933,6.52141 4.84557,-9.20998 m -9.73398,6.69229 4.68414,-9.29316 m -14.58907,4.51558 4.35696,-9.45095 m -9.37047,7.1925 4.19135,-9.52556 m -9.24347,7.35503 4.02443,-9.59725 m -9.11367,7.51519 3.85637,-9.66604 m -14.14,5.76992 3.51667,-9.79472 m -8.70794,7.98182 3.34519,-9.85461 m -8.56726,8.13266 3.17266,-9.91148 m -8.42399,8.2809 2.99923,-9.96536 m -13.5833,6.98034 2.64962,-10.06394 m -7.97915,8.71039 2.47358,-10.10867 m -7.82584,8.8484 2.29674,-10.15027 m -7.67021,8.98359 2.11929,-10.18885 m -12.92325,8.13765 1.76241,-10.25658 m -7.18963,9.37267 1.58315,-10.28579 m -7.02489,9.49679 1.40336,-10.31181 m -6.85806,9.6179 1.22321,-10.33477 m -12.16483,9.23301 0.86178,-10.37115 m -6.34538,9.96362 0.68066,-10.38463 m -6.17045,10.07292 0.49928,-10.3949 m -5.99371,10.17904 0.31782,-10.40207 m -11.31383,10.25812 -0.0454,-10.4068 m -5.45285,10.47874 -0.22701,-10.40442 m -5.26906,10.57236 -0.4086,-10.39885 m -5.08373,10.66268 -0.58999,-10.39017"
     id="path6306"
     style="color:#000000;font-style:normal;font-variant:normal;font-weight:normal;font-stretch:semi-condensed;font-size:18px;line-height:125%;font-family:'DejaVu Sans';-inkscape-font-specification:'DejaVu Sans Semi-Condensed';text-align:center;writing-mode:lr-tb;text-anchor:middle;display:inline;overflow:visible;visibility:visible;fill:none;stroke:#e50083;stroke-width:2;stroke-linecap:butt;stroke-linejoin:miter;stroke-miterlimit:4;stroke-dashoffset:0;stroke-opacity:1;marker:none;enable-background:accumulate"
     inkscape:connector-curvature="0" />
  <path
     d="m 582.02316,355.74769 9.4018,126.5166 m -13.41507,-180.52157 2.51979,33.90784"
     id="path7048"
     style="color:#000000;font-style:normal;font-variant:normal;font-weight:normal;font-stretch:semi-condensed;font-size:18px;line-height:125%;font-family:'DejaVu Sans';-inkscape-font-specification:'DejaVu Sans Semi-Condensed';text-align:center;writing-mode:lr-tb;text-anchor:middle;display:inline;overflow:visible;visibility:visible;fill:none;stroke:#e50083;stroke-width:2;stroke-linecap:butt;stroke-linejoin:miter;stroke-miterlimit:4;stroke-dasharray:none;stroke-dashoffset:0;stroke-opacity:1;marker:none;enable-background:accumulate"
     inkscape:connector-curvature="0" />
  <path
     d="M 302.17843,621.86089 482.7,608.44582"
     id="path7050"
     style="color:#000000;font-style:normal;font-variant:normal;font-weight:normal;font-stretch:semi-condensed;font-size:18px;line-height:125%;font-family:'DejaVu Sans';-inkscape-font-specification:'DejaVu Sans Semi-Condensed';text-align:center;writing-mode:lr-tb;text-anchor:middle;display:inline;overflow:visible;visibility:visible;fill:none;stroke:#e50083;stroke-width:2;stroke-linecap:butt;stroke-linejoin:miter;stroke-miterlimit:4;stroke-dasharray:none;stroke-dashoffset:0;stroke-opacity:1;marker:none;enable-background:accumulate"
     inkscape:connector-curvature="0" />
  <path
     d="M 622.2966,897.69236 608.88153,717.17079"
     id="path7052"
     style="color:#000000;font-style:normal;font-variant:normal;font-weight:normal;font-stretch:semi-condensed;font-size:18px;line-height:125%;font-family:'DejaVu Sans';-inkscape-font-specification:'DejaVu Sans Semi-Condensed';text-align:center;writing-mode:lr-tb;text-anchor:middle;display:inline;overflow:visible;visibility:visible;fill:none;stroke:#e50083;stroke-width:2;stroke-linecap:butt;stroke-linejoin:miter;stroke-miterlimit:4;stroke-dasharray:none;stroke-dashoffset:0;stroke-opacity:1;marker:none;enable-background:accumulate"
     inkscape:connector-curvature="0" />
  <path
     d="M 898.12807,577.57419 717.60649,590.98926"
     id="path7054"
     style="color:#000000;font-style:normal;font-variant:normal;font-weight:normal;font-stretch:semi-condensed;font-size:18px;line-height:125%;font-family:'DejaVu Sans';-inkscape-font-specification:'DejaVu Sans Semi-Condensed';text-align:center;writing-mode:lr-tb;text-anchor:middle;display:inline;overflow:visible;visibility:visible;fill:none;stroke:#e50083;stroke-width:2;stroke-linecap:butt;stroke-linejoin:miter;stroke-miterlimit:4;stroke-dasharray:none;stroke-dashoffset:0;stroke-opacity:1;marker:none;enable-background:accumulate"
     inkscape:connector-curvature="0" />
  <path
     d="m 520.30337,311.78818 9.08647,32.76472 m -63.72442,-11.6543 15.30396,30.36247 m -64.7736,1.00166 20.93332,26.7934 m -63.33359,13.61912 25.75823,22.19469 m -59.45969,25.71319 29.59326,16.74305 m -53.3008,36.81913 32.29104,10.64798 m -45.09358,46.51013 33.74789,4.14371 m -25.10798,112.1203 32.76471,-9.08647 m -11.65429,63.72442 30.36246,-15.30396 m 1.00167,64.7736 26.7934,-20.93332 m 13.61913,63.33359 22.19467,-25.75823 m 25.71322,59.45969 16.74303,-29.59326 m 36.81915,53.3008 10.64796,-32.29104 m 46.51015,45.09357 4.14369,-33.74788 m 112.12032,25.10797 -9.08649,-32.7647 m 63.72444,11.65428 -15.30398,-30.36245 m 64.77362,-1.00168 -20.93333,-26.79338 M 826.511,794.75983 800.75277,772.56517 m 59.45969,-25.71323 -29.59325,-16.74301 m 53.30078,-36.81918 -32.29102,-10.64793 m 45.09356,-46.51018 -33.74787,-4.14366 m 25.10794,-112.12034 -32.76467,9.0865 m 11.65424,-63.72444 -30.36241,15.30398 m -1.00171,-64.77362 -26.79336,20.93333 m -13.61917,-63.33359 -22.19464,25.75823 m -25.71325,-59.45969 -16.74299,29.59325 m -36.8192,-53.30078 -10.64792,32.29102 m -46.51019,-45.09356 -4.14365,33.74787 m -83.51379,-31.54816 2.91571,16.74945 m -59.35974,-1.09613 6.12735,15.85878 m -58.43301,10.50544 9.10351,14.35867 m -55.26073,21.70329 11.72983,12.30678 m -49.96481,32.0671 13.90538,9.78192 m -42.74876,41.1986 15.54654,6.88116 m -33.88991,48.74685 16.59027,3.71595 m -23.72869,54.42179 16.99644,0.40795 m -12.65558,58.00533 16.74945,-2.91573 m -1.09613,59.35976 15.85878,-6.12737 m 10.50544,58.43303 14.35866,-9.10353 m 21.7033,55.26075 12.30676,-11.72985 m 32.06712,49.96483 9.78191,-13.9054 m 41.19861,42.74878 6.88115,-15.54656 m 48.74685,33.88993 3.71595,-16.59029 m 54.4218,23.7287 0.40794,-16.99644 m 58.00534,12.65559 -2.91574,-16.74946 m 59.35977,1.09614 -6.12738,-15.85879 m 58.43304,-10.50543 -9.10354,-14.35867 m 55.26076,-21.70329 -11.72986,-12.30677 m 49.96484,-32.06711 -13.90542,-9.78191 m 42.74881,-41.19861 -15.54658,-6.88114 m 33.88994,-48.74687 -16.5903,-3.71593 m 23.72872,-54.42181 -16.99647,-0.40793 m 12.65562,-58.00535 -16.74947,2.91575 m 1.09615,-59.35978 -15.8588,6.12739 m -10.50542,-58.43305 -14.35868,9.10355 m -21.7033,-55.26077 -12.30676,11.72987 m -32.06711,-49.96485 -9.78191,13.90542 m -41.19861,-42.7488 -6.88114,15.54658 m -48.74687,-33.88995 -3.71593,16.59031 m -54.42181,-23.72872 -0.40793,16.99646 m -43.50219,-14.8151 1.38224,11.15604 m -30.27025,-6.12701 2.46906,10.96684 m -30.72504,-3.13049 3.53211,10.67202 m -30.88393,-0.10384 4.56113,10.27442 m -30.74538,2.92382 5.54623,9.77786 m -30.31075,5.92333 6.47793,9.18715 m -29.58421,8.86578 7.34723,8.50796 m -28.57276,11.72285 8.14578,7.74684 m -27.28612,14.46702 8.86587,6.91112 m -25.73672,17.07185 9.50059,6.00884 m -23.93946,19.51228 10.04381,5.04869 m -21.91163,21.7648 10.4903,4.03992 m -19.67281,23.80771 10.83577,2.99224 m -17.24451,25.62133 11.07688,1.91574 m -14.65015,27.18823 11.21133,0.82078 m -11.9147,28.49327 11.2378,-0.28207 m -9.06451,29.52391 11.15605,-1.38221 m -6.12701,30.27022 10.96684,-2.46903 m -3.1305,30.72501 10.67202,-3.53208 m -0.10385,30.8839 10.27443,-4.5611 m 2.9238,30.74537 9.77789,-5.54622 m 5.92329,30.31073 9.18719,-6.47791 m 8.86574,29.5842 8.508,-7.34722 m 11.72281,28.57275 7.74688,-8.14577 m 14.46698,27.28613 6.91116,-8.86588 m 17.07182,25.73673 6.00887,-9.5006 m 19.51225,23.93947 5.04872,-10.04382 m 21.76477,21.91166 4.03995,-10.49033 m 23.80768,19.67283 2.99226,-10.83579 m 25.62132,17.24453 1.91576,-11.0769 m 27.1882,14.65017 0.82081,-11.21135 m 28.49325,11.91472 -0.28205,-11.23782 m 29.5239,9.06453 -1.3822,-11.15607 m 30.27022,6.12703 -2.46903,-10.96686 m 30.72501,3.13052 -3.53208,-10.67205 m 30.88392,0.10388 -4.56112,-10.27446 m 30.74538,-2.92378 -5.54623,-9.77791 m 30.31074,-5.92328 -6.47792,-9.18721 m 29.58422,-8.86572 -7.34724,-8.50802 m 28.57277,-11.72279 -8.1458,-7.7469 m 27.28615,-14.46697 -8.8659,-6.91117 m 25.73675,-17.07181 -9.50062,-6.00888 m 23.9395,-19.51225 -10.04386,-5.04872 m 21.91169,-21.76477 -10.49035,-4.03995 m 19.67286,-23.80768 -10.83582,-2.99226 m 17.24456,-25.62132 -11.07693,-1.91576 m 14.6502,-27.1882 -11.21138,-0.82081 m 11.91475,-28.49325 -11.23785,0.28205 m 9.06455,-29.5239 -11.15609,1.3822 m 6.12706,-30.27023 -10.96689,2.46904 m 3.13055,-30.72503 -10.67208,3.5321 m 0.10391,-30.88393 -10.27449,4.56114 m -2.92375,-30.7454 -9.77794,5.54625 m -5.92325,-30.31077 -9.18722,6.47795 m -8.86571,-29.58425 -8.50803,7.34727 m -11.72279,-28.5728 -7.7469,8.14583 m -14.46696,-27.28619 -6.91118,8.86594 m -17.07181,-25.73678 -6.00888,9.50065 m -19.51225,-23.93953 -5.04871,10.04388 m -21.76479,-21.91171 -4.03993,10.49038 m -23.80771,-19.67289 -2.99224,10.83585 m -25.62134,-17.24459 -1.91573,11.07696 m -27.18824,-14.65023 -0.82077,11.21141 m -28.4933,-11.91477 0.2821,11.23787"
     id="path7070"
     style="color:#000000;font-style:normal;font-variant:normal;font-weight:normal;font-stretch:semi-condensed;font-size:18px;line-height:125%;font-family:'DejaVu Sans';-inkscape-font-specification:'DejaVu Sans Semi-Condensed';text-align:center;writing-mode:lr-tb;text-anchor:middle;display:inline;overflow:visible;visibility:visible;fill:none;stroke:#e50083;stroke-width:2;stroke-linecap:butt;stroke-linejoin:miter;stroke-miterlimit:4;stroke-dashoffset:0;stroke-opacity:1;marker:none;enable-background:accumulate"
     inkscape:connector-curvature="0" />
  <path
     d="m 240.47673,626.44612 -58.52848,4.34942"
     id="path7846"
     style="color:#000000;font-style:normal;font-variant:normal;font-weight:normal;font-stretch:semi-condensed;font-size:18px;line-height:125%;font-family:'DejaVu Sans';-inkscape-font-specification:'DejaVu Sans Semi-Condensed';text-align:center;writing-mode:lr-tb;text-anchor:middle;display:inline;overflow:visible;visibility:visible;fill:none;stroke:#e50083;stroke-width:2;stroke-linecap:butt;stroke-linejoin:miter;stroke-miterlimit:4;stroke-dasharray:none;stroke-dashoffset:0;stroke-opacity:1;marker:none;enable-background:accumulate"
     inkscape:connector-curvature="0" />
  <path
     d="m 626.88183,959.39405 4.34942,58.52855"
     id="path7848"
     style="color:#000000;font-style:normal;font-variant:normal;font-weight:normal;font-stretch:semi-condensed;font-size:18px;line-height:125%;font-family:'DejaVu Sans';-inkscape-font-specification:'DejaVu Sans Semi-Condensed';text-align:center;writing-mode:lr-tb;text-anchor:middle;display:inline;overflow:visible;visibility:visible;fill:none;stroke:#e50083;stroke-width:2;stroke-linecap:butt;stroke-linejoin:miter;stroke-miterlimit:4;stroke-dasharray:none;stroke-dashoffset:0;stroke-opacity:1;marker:none;enable-background:accumulate"
     inkscape:connector-curvature="0" />
  <path
     d="m 959.82976,572.98896 58.52854,-4.34942"
     id="path7850"
     style="color:#000000;font-style:normal;font-variant:normal;font-weight:normal;font-stretch:semi-condensed;font-size:18px;line-height:125%;font-family:'DejaVu Sans';-inkscape-font-specification:'DejaVu Sans Semi-Condensed';text-align:center;writing-mode:lr-tb;text-anchor:middle;display:inline;overflow:visible;visibility:visible;fill:none;stroke:#e50083;stroke-width:2;stroke-linecap:butt;stroke-linejoin:miter;stroke-miterlimit:4;stroke-dasharray:none;stroke-dashoffset:0;stroke-opacity:1;marker:none;enable-background:accumulate"
     inkscape:connector-curvature="0" />
  <path
     d="m 573.42467,240.04103 -4.34942,-58.52849 m 9.63536,18.01351 -9.6129,-17.7113 v 0 l -6.88942,18.93764"
     id="path7844"
     style="color:#000000;font-style:normal;font-variant:normal;font-weight:normal;font-stretch:semi-condensed;font-size:18px;line-height:125%;font-family:'DejaVu Sans';-inkscape-font-specification:'DejaVu Sans Semi-Condensed';text-align:center;writing-mode:lr-tb;text-anchor:middle;display:inline;overflow:visible;visibility:visible;fill:none;stroke:#e50083;stroke-width:3;stroke-linecap:butt;stroke-linejoin:miter;stroke-miterlimit:4;stroke-dasharray:none;stroke-dashoffset:0;stroke-opacity:1;marker:none;enable-background:accumulate"
     inkscape:connector-curvature="0" />
  <text
     x="554.04999"
     y="297.81573"
     transform="rotate(-4.25)"
     id="text8172"
     xml:space="preserve"
     style="font-style:normal;font-variant:normal;font-weight:normal;font-stretch:semi-condensed;font-size:18px;line-height:125%;font-family:'DejaVu Sans';-inkscape-font-specification:'DejaVu Sans Semi-Condensed';text-align:center;writing-mode:lr-tb;text-anchor:middle;fill:#e50083;fill-opacity:1;stroke:none"><tspan
       x="554.04999"
       y="297.81573"
       id="tspan8174"
       style="font-style:normal;font-variant:normal;font-weight:normal;font-stretch:semi-condensed;font-size:18px;line-height:125%;font-family:'DejaVu Sans';-inkscape-font-specification:'DejaVu Sans Semi-Condensed';text-align:center;writing-mode:lr-tb;text-anchor:middle;fill:#e50083;fill-opacity:1">0</tspan></text>
  <text
     x="801.97437"
     y="-64.173767"
     transform="rotate(25.750003)"
     id="text8176"
     xml:space="preserve"
     style="font-style:normal;font-variant:normal;font-weight:normal;font-stretch:semi-condensed;font-size:18px;line-height:125%;font-family:'DejaVu Sans';-inkscape-font-specification:'DejaVu Sans Semi-Condensed';text-align:center;writing-mode:lr-tb;text-anchor:middle;fill:#e50083;fill-opacity:1;stroke:none"><tspan
       x="801.97437"
       y="-64.173767"
       id="tspan8178"
       style="font-style:normal;font-variant:normal;font-weight:normal;font-stretch:semi-condensed;font-size:18px;line-height:125%;font-family:'DejaVu Sans';-inkscape-font-specification:'DejaVu Sans Semi-Condensed';text-align:center;writing-mode:lr-tb;text-anchor:middle;fill:#e50083;fill-opacity:1">30</tspan></text>
  <text
     x="833.7251"
     y="-502.92688"
     transform="rotate(55.750011)"
     id="text8180"
     xml:space="preserve"
     style="font-style:normal;font-variant:normal;font-weight:normal;font-stretch:semi-condensed;font-size:18px;line-height:125%;font-family:'DejaVu Sans';-inkscape-font-specification:'DejaVu Sans Semi-Condensed';text-align:center;writing-mode:lr-tb;text-anchor:middle;fill:#e50083;fill-opacity:1;stroke:none"><tspan
       x="833.7251"
       y="-502.92688"
       id="tspan8182"
       style="font-style:normal;font-variant:normal;font-weight:normal;font-stretch:semi-condensed;font-size:18px;line-height:125%;font-family:'DejaVu Sans';-inkscape-font-specification:'DejaVu Sans Semi-Condensed';text-align:center;writing-mode:lr-tb;text-anchor:middle;fill:#e50083;fill-opacity:1">60</tspan></text>
  <text
     x="643.3819"
     y="-896.20685"
     transform="rotate(85.75001)"
     id="text8184"
     xml:space="preserve"
     style="font-style:normal;font-variant:normal;font-weight:normal;font-stretch:semi-condensed;font-size:18px;line-height:125%;font-family:'DejaVu Sans';-inkscape-font-specification:'DejaVu Sans Semi-Condensed';text-align:center;writing-mode:lr-tb;text-anchor:middle;fill:#e50083;fill-opacity:1;stroke:none"><tspan
       x="643.3819"
       y="-896.20685"
       id="tspan8186"
       style="font-style:normal;font-variant:normal;font-weight:normal;font-stretch:semi-condensed;font-size:18px;line-height:125%;font-family:'DejaVu Sans';-inkscape-font-specification:'DejaVu Sans Semi-Condensed';text-align:center;writing-mode:lr-tb;text-anchor:middle;fill:#e50083;fill-opacity:1">90</tspan></text>
  <text
     x="280.99838"
     y="-1147.1044"
     transform="rotate(115.75)"
     id="text8188"
     xml:space="preserve"
     style="font-style:normal;font-variant:normal;font-weight:normal;font-stretch:semi-condensed;font-size:18px;line-height:125%;font-family:'DejaVu Sans';-inkscape-font-specification:'DejaVu Sans Semi-Condensed';text-align:center;writing-mode:lr-tb;text-anchor:middle;fill:#e50083;fill-opacity:1;stroke:none"><tspan
       x="280.99838"
       y="-1147.1044"
       id="tspan8190"
       style="font-style:normal;font-variant:normal;font-weight:normal;font-stretch:semi-condensed;font-size:18px;line-height:125%;font-family:'DejaVu Sans';-inkscape-font-specification:'DejaVu Sans Semi-Condensed';text-align:center;writing-mode:lr-tb;text-anchor:middle;fill:#e50083;fill-opacity:1">120</tspan></text>
  <text
     x="-158.30029"
     y="-1177.5669"
     transform="rotate(145.74999)"
     id="text8192"
     xml:space="preserve"
     style="font-style:normal;font-variant:normal;font-weight:normal;font-stretch:semi-condensed;font-size:18px;line-height:125%;font-family:'DejaVu Sans';-inkscape-font-specification:'DejaVu Sans Semi-Condensed';text-align:center;writing-mode:lr-tb;text-anchor:middle;fill:#e50083;fill-opacity:1;stroke:none"><tspan
       x="-158.30029"
       y="-1177.5669"
       id="tspan8194"
       style="font-style:normal;font-variant:normal;font-weight:normal;font-stretch:semi-condensed;font-size:18px;line-height:125%;font-family:'DejaVu Sans';-inkscape-font-specification:'DejaVu Sans Semi-Condensed';text-align:center;writing-mode:lr-tb;text-anchor:middle;fill:#e50083;fill-opacity:1">150</tspan></text>
  <text
     x="-554.69275"
     y="-985.72241"
     transform="rotate(175.75)"
     id="text8196"
     xml:space="preserve"
     style="font-style:normal;font-variant:normal;font-weight:normal;font-stretch:semi-condensed;font-size:18px;line-height:125%;font-family:'DejaVu Sans';-inkscape-font-specification:'DejaVu Sans Semi-Condensed';text-align:center;writing-mode:lr-tb;text-anchor:middle;fill:#e50083;fill-opacity:1;stroke:none"><tspan
       x="-554.69275"
       y="-985.72241"
       id="tspan8198"
       style="font-style:normal;font-variant:normal;font-weight:normal;font-stretch:semi-condensed;font-size:18px;line-height:125%;font-family:'DejaVu Sans';-inkscape-font-specification:'DejaVu Sans Semi-Condensed';text-align:center;writing-mode:lr-tb;text-anchor:middle;fill:#e50083;fill-opacity:1">180</tspan></text>
  <text
     x="-801.51898"
     y="-625.06458"
     transform="rotate(-154.25)"
     id="text8200"
     xml:space="preserve"
     style="font-style:normal;font-variant:normal;font-weight:normal;font-stretch:semi-condensed;font-size:18px;line-height:125%;font-family:'DejaVu Sans';-inkscape-font-specification:'DejaVu Sans Semi-Condensed';text-align:center;writing-mode:lr-tb;text-anchor:middle;fill:#e50083;fill-opacity:1;stroke:none"><tspan
       x="-801.51898"
       y="-625.06458"
       id="tspan8202"
       style="font-style:normal;font-variant:normal;font-weight:normal;font-stretch:semi-condensed;font-size:18px;line-height:125%;font-family:'DejaVu Sans';-inkscape-font-specification:'DejaVu Sans Semi-Condensed';text-align:center;writing-mode:lr-tb;text-anchor:middle;fill:#e50083;fill-opacity:1">210</tspan></text>
  <text
     x="-834.23309"
     y="-185.69328"
     transform="rotate(-124.25)"
     id="text8204"
     xml:space="preserve"
     style="font-style:normal;font-variant:normal;font-weight:normal;font-stretch:semi-condensed;font-size:18px;line-height:125%;font-family:'DejaVu Sans';-inkscape-font-specification:'DejaVu Sans Semi-Condensed';text-align:center;writing-mode:lr-tb;text-anchor:middle;fill:#e50083;fill-opacity:1;stroke:none"><tspan
       x="-834.23309"
       y="-185.69328"
       id="tspan8206"
       style="font-style:normal;font-variant:normal;font-weight:normal;font-stretch:semi-condensed;font-size:18px;line-height:125%;font-family:'DejaVu Sans';-inkscape-font-specification:'DejaVu Sans Semi-Condensed';text-align:center;writing-mode:lr-tb;text-anchor:middle;fill:#e50083;fill-opacity:1">240</tspan></text>
  <text
     x="-641.0141"
     y="209.94286"
     transform="rotate(-94.25001)"
     id="text8208"
     xml:space="preserve"
     style="font-style:normal;font-variant:normal;font-weight:normal;font-stretch:semi-condensed;font-size:18px;line-height:125%;font-family:'DejaVu Sans';-inkscape-font-specification:'DejaVu Sans Semi-Condensed';text-align:center;writing-mode:lr-tb;text-anchor:middle;fill:#e50083;fill-opacity:1;stroke:none"><tspan
       x="-641.0141"
       y="209.94286"
       id="tspan8210"
       style="font-style:normal;font-variant:normal;font-weight:normal;font-stretch:semi-condensed;font-size:18px;line-height:125%;font-family:'DejaVu Sans';-inkscape-font-specification:'DejaVu Sans Semi-Condensed';text-align:center;writing-mode:lr-tb;text-anchor:middle;fill:#e50083;fill-opacity:1">270</tspan></text>
  <text
     x="-279.6088"
     y="458.272"
     transform="rotate(-64.250004)"
     id="text8212"
     xml:space="preserve"
     style="font-style:normal;font-variant:normal;font-weight:normal;font-stretch:semi-condensed;font-size:18px;line-height:125%;font-family:'DejaVu Sans';-inkscape-font-specification:'DejaVu Sans Semi-Condensed';text-align:center;writing-mode:lr-tb;text-anchor:middle;fill:#e50083;fill-opacity:1;stroke:none"><tspan
       x="-279.6088"
       y="458.272"
       id="tspan8214"
       style="font-style:normal;font-variant:normal;font-weight:normal;font-stretch:semi-condensed;font-size:18px;line-height:125%;font-family:'DejaVu Sans';-inkscape-font-specification:'DejaVu Sans Semi-Condensed';text-align:center;writing-mode:lr-tb;text-anchor:middle;fill:#e50083;fill-opacity:1">300</tspan></text>
  <text
     x="157.76047"
     y="489.67068"
     transform="rotate(-34.250005)"
     id="text8216"
     xml:space="preserve"
     style="font-style:normal;font-variant:normal;font-weight:normal;font-stretch:semi-condensed;font-size:18px;line-height:125%;font-family:'DejaVu Sans';-inkscape-font-specification:'DejaVu Sans Semi-Condensed';text-align:center;writing-mode:lr-tb;text-anchor:middle;fill:#e50083;fill-opacity:1;stroke:none"><tspan
       x="157.76047"
       y="489.67068"
       id="tspan8218"
       style="font-style:normal;font-variant:normal;font-weight:normal;font-stretch:semi-condensed;font-size:18px;line-height:125%;font-family:'DejaVu Sans';-inkscape-font-specification:'DejaVu Sans Semi-Condensed';text-align:center;writing-mode:lr-tb;text-anchor:middle;fill:#e50083;fill-opacity:1">330</tspan></text>
  <path
     d="m 539.03924,347.23244 2.29694,-0.50385 4.60814,7.11539 1.222,-8.39426 2.29695,-0.50385 2.49916,11.39318 -1.50333,0.32976 -2.1945,-10.00433 -1.22387,8.45867 -1.54911,0.3398 -4.65205,-7.16975 2.19451,10.00433 -1.49569,0.32809 -2.49915,-11.39318 m 18.18312,-2.06817 -1.14815,6.07934 4.22965,-0.71143 -3.0815,-5.36791 m -1.13617,-1.38542 1.76428,-0.29676 6.31845,10.76514 -1.6179,0.27213 -1.54409,-2.7745 -5.18497,0.87211 -0.55148,3.12698 -1.641,0.27602 2.45671,-12.24112 m 17.18224,7.67787 -0.37655,-3.11011 -2.55943,0.30987 -0.15584,-1.28747 4.11061,-0.49767 0.6019,4.9715 c -0.55302,0.50241 -1.18058,0.90891 -1.8827,1.21951 -0.70277,0.30543 -1.4678,0.50822 -2.29509,0.60838 -1.8097,0.21912 -3.29029,-0.13678 -4.44176,-1.06762 -1.14694,-0.93665 -1.83465,-2.34861 -2.06313,-4.23587 -0.22907,-1.89242 0.10178,-3.42769 0.99268,-4.60583 0.89544,-1.1839 2.24802,-1.88541 4.05771,-2.10452 0.75491,-0.0914 1.4823,-0.085 2.18218,0.0191 0.70505,0.10351 1.36645,0.3015 1.98421,0.59395 l 0.20194,1.6675 c -0.63859,-0.42109 -1.29864,-0.71628 -1.98017,-0.88561 -0.68155,-0.1693 -1.38168,-0.21045 -2.10038,-0.12345 -1.41674,0.17157 -2.434,0.69604 -3.05176,1.57351 -0.61259,0.87687 -0.82405,2.09864 -0.63437,3.66532 0.18904,1.56152 0.68565,2.69494 1.4898,3.40028 0.80932,0.70471 1.92234,0.97131 3.33908,0.79978 0.55325,-0.067 1.0414,-0.17335 1.46447,-0.31895 0.42242,-0.15082 0.79465,-0.34803 1.11668,-0.59163 m 3.79169,-10.4358 2.11945,-0.15349 5.8611,9.36005 -0.70269,-9.73248 1.52726,-0.11048 0.83997,11.63378 -2.11945,0.15349 -5.8611,-9.36006 0.70269,9.73247 -1.52726,0.11049 -0.83997,-11.63378 m 12.45502,-0.79901 7.37207,-0.20786 0.0374,1.32759 -5.79457,0.16339 0.0973,3.45175 5.55247,-0.15656 0.0375,1.3276 -5.55248,0.15655 0.11912,4.22489 5.93514,-0.16735 0.0374,1.3276 -7.51264,0.21183 -0.32875,-11.65943 m 8.97031,-0.2424 9.86652,0.11481 -0.0155,1.32803 -4.14034,-0.0482 -0.12027,10.33525 -1.58583,-0.0185 0.12026,-10.33523 -4.14034,-0.0482 0.0155,-1.32803 m 11.73571,0.22405 1.57682,0.0643 -0.47557,11.65436 -1.57681,-0.0643 0.47556,-11.65436 m 13.7352,1.74416 -0.12117,1.65965 c -0.49381,-0.53215 -1.03309,-0.94231 -1.61782,-1.23044 -0.57955,-0.28776 -1.20697,-0.45628 -1.88224,-0.50559 -1.3298,-0.0971 -2.3777,0.23635 -3.14369,1.0003 -0.76562,0.75877 -1.20455,1.90693 -1.31682,3.4445 -0.11188,1.53238 0.15561,2.73213 0.80255,3.59925 0.64728,0.86192 1.63582,1.34142 2.96563,1.43852 0.67527,0.0493 1.32051,-0.0263 1.93571,-0.22688 0.62038,-0.20014 1.2135,-0.52762 1.77938,-0.98242 l -0.12003,1.64407 c -0.57794,0.3338 -1.1828,0.57164 -1.81459,0.71351 -0.62661,0.14223 -1.28275,0.18838 -1.96842,0.13825 -1.76094,-0.12857 -3.10862,-0.76746 -4.04304,-1.91668 -0.93405,-1.15441 -1.33299,-2.66403 -1.19684,-4.52886 0.13654,-1.87001 0.75052,-3.30568 1.84195,-4.307 1.09182,-1.00649 2.51819,-1.44545 4.27914,-1.3169 0.69605,0.0508 1.34373,0.19213 1.94304,0.42387 0.60487,0.22695 1.16395,0.54454 1.67725,0.95278"
     id="text8238"
     style="font-style:normal;font-variant:normal;font-weight:normal;font-stretch:semi-condensed;font-size:18px;line-height:125%;font-family:'DejaVu Sans';-inkscape-font-specification:'DejaVu Sans Semi-Condensed';text-align:center;writing-mode:lr-tb;text-anchor:middle;fill:#e50083;fill-opacity:1;stroke:none"
     inkscape:connector-curvature="0" />
  <path
     d="m 526.83805,651.24159 c 28.44128,40.46999 84.36927,50.23242 124.83926,21.79113 40.46998,-28.44127 50.23241,-84.36926 21.79113,-124.83926"
     id="path8296"
     style="font-style:normal;font-variant:normal;font-weight:normal;font-stretch:semi-condensed;font-size:18px;line-height:125%;font-family:'DejaVu Sans';-inkscape-font-specification:'DejaVu Sans Semi-Condensed';text-align:center;writing-mode:lr-tb;text-anchor:middle;fill:none;stroke:none"
     inkscape:connector-curvature="0" />
  <path
     d="m 510.54384,599.71753 c 0,-49.46439 40.14502,-89.60941 89.60942,-89.60941 49.46439,0 89.60941,40.14502 89.60941,89.60941"
     id="path8291"
     style="font-style:normal;font-variant:normal;font-weight:normal;font-stretch:semi-condensed;font-size:18px;line-height:125%;font-family:'DejaVu Sans';-inkscape-font-specification:'DejaVu Sans Semi-Condensed';text-align:center;writing-mode:lr-tb;text-anchor:middle;fill:none;stroke:none"
     inkscape:connector-curvature="0" />
</svg>
